<svg width="16" height="18" viewBox="0 0 16 18" fill="none" xmlns="http://www.w3.org/2000/svg">
<path d="M3.9 17.875C2.73333 17.175 1.79167 16.2207 1.075 15.012C0.358333 13.804 0 12.4667 0 11C0 9.11669 0.558334 7.30835 1.675 5.57502C2.79167 3.84169 4.325 2.32502 6.275 1.02502C6.64167 0.775022 7.021 0.762355 7.413 0.987022C7.80433 1.21235 8 1.55002 8 2.00002V3.30002C8 3.86669 8.196 4.34169 8.588 4.72502C8.97933 5.10835 9.45833 5.30002 10.025 5.30002C10.3083 5.30002 10.5793 5.23769 10.838 5.11302C11.096 4.98769 11.325 4.80835 11.525 4.57502C11.6583 4.40835 11.8293 4.30402 12.038 4.26202C12.246 4.22069 12.4417 4.26669 12.625 4.40002C13.675 5.15002 14.5 6.10835 15.1 7.27502C15.7 8.44169 16 9.68336 16 11C16 12.4667 15.6417 13.804 14.925 15.012C14.2083 16.2207 13.2667 17.175 12.1 17.875C12.3833 17.475 12.6043 17.0374 12.763 16.562C12.921 16.0874 13 15.5834 13 15.05C13 14.3834 12.875 13.7544 12.625 13.163C12.375 12.571 12.0167 12.0417 11.55 11.575L8 8.10002L4.475 11.575C3.99167 12.0584 3.625 12.5917 3.375 13.175C3.125 13.7584 3 14.3834 3 15.05C3 15.5834 3.07933 16.0874 3.238 16.562C3.396 17.0374 3.61667 17.475 3.9 17.875ZM8 18C7.16667 18 6.45833 17.7124 5.875 17.137C5.29167 16.5624 5 15.8667 5 15.05C5 14.6667 5.075 14.296 5.225 13.938C5.375 13.5794 5.59167 13.2584 5.875 12.975L8 10.9L10.125 12.975C10.4083 13.2584 10.625 13.575 10.775 13.925C10.925 14.275 11 14.65 11 15.05C11 15.8667 10.7083 16.5624 10.125 17.137C9.54167 17.7124 8.83333 18 8 18Z" fill="black"/>
</svg>
