<svg width="20" height="20" viewBox="0 0 20 20" fill="none" xmlns="http://www.w3.org/2000/svg">
<path d="M11.8751 20H8.12509C7.87509 20 7.65843 19.9167 7.47509 19.75C7.29176 19.5833 7.18343 19.375 7.15009 19.125L6.85009 16.8C6.63343 16.7167 6.42943 16.6167 6.23809 16.5C6.04609 16.3833 5.85843 16.2583 5.67509 16.125L3.50009 17.025C3.26676 17.1083 3.03343 17.1167 2.80009 17.05C2.56676 16.9833 2.38343 16.8417 2.25009 16.625L0.400093 13.4C0.26676 13.1833 0.225093 12.95 0.275093 12.7C0.325093 12.45 0.450093 12.25 0.650093 12.1L2.52509 10.675C2.50843 10.5583 2.50009 10.4457 2.50009 10.337V9.662C2.50009 9.554 2.50843 9.44167 2.52509 9.325L0.650093 7.9C0.450093 7.75 0.325093 7.55 0.275093 7.3C0.225093 7.05 0.26676 6.81667 0.400093 6.6L2.25009 3.375C2.36676 3.14167 2.54576 2.99567 2.78709 2.937C3.02909 2.879 3.26676 2.89167 3.50009 2.975L5.67509 3.875C5.85843 3.74167 6.05009 3.61667 6.25009 3.5C6.45009 3.38333 6.65009 3.28333 6.85009 3.2L7.15009 0.875C7.18343 0.625 7.29176 0.416667 7.47509 0.25C7.65843 0.0833333 7.87509 0 8.12509 0H11.8751C12.1251 0 12.3418 0.0833333 12.5251 0.25C12.7084 0.416667 12.8168 0.625 12.8501 0.875L13.1501 3.2C13.3668 3.28333 13.5711 3.38333 13.7631 3.5C13.9544 3.61667 14.1418 3.74167 14.3251 3.875L16.5001 2.975C16.7334 2.89167 16.9668 2.88333 17.2001 2.95C17.4334 3.01667 17.6168 3.15833 17.7501 3.375L19.6001 6.6C19.7334 6.81667 19.7751 7.05 19.7251 7.3C19.6751 7.55 19.5501 7.75 19.3501 7.9L17.4751 9.325C17.4918 9.44167 17.5001 9.554 17.5001 9.662V10.337C17.5001 10.4457 17.4834 10.5583 17.4501 10.675L19.3251 12.1C19.5251 12.25 19.6501 12.45 19.7001 12.7C19.7501 12.95 19.7084 13.1833 19.5751 13.4L17.7251 16.6C17.5918 16.8167 17.4044 16.9627 17.1631 17.038C16.9211 17.1127 16.6834 17.1083 16.4501 17.025L14.3251 16.125C14.1418 16.2583 13.9501 16.3833 13.7501 16.5C13.5501 16.6167 13.3501 16.7167 13.1501 16.8L12.8501 19.125C12.8168 19.375 12.7084 19.5833 12.5251 19.75C12.3418 19.9167 12.1251 20 11.8751 20ZM10.0501 13.5C11.0168 13.5 11.8418 13.1583 12.5251 12.475C13.2084 11.7917 13.5501 10.9667 13.5501 10C13.5501 9.03333 13.2084 8.20833 12.5251 7.525C11.8418 6.84167 11.0168 6.5 10.0501 6.5C9.06676 6.5 8.23743 6.84167 7.56209 7.525C6.88743 8.20833 6.55009 9.03333 6.55009 10C6.55009 10.9667 6.88743 11.7917 7.56209 12.475C8.23743 13.1583 9.06676 13.5 10.0501 13.5Z" fill="black"/>
</svg>
